<svg width="24" height="24" viewBox="0 0 24 24" fill="none" xmlns="http://www.w3.org/2000/svg">
<path fill-rule="evenodd" clip-rule="evenodd" d="M10.0313 5.07359C10.5052 2.97547 13.4948 2.97547 13.9687 5.07359C14.1237 5.75965 14.9109 6.08575 15.5056 5.71022C17.3244 4.56174 19.4383 6.67564 18.2898 8.49436C17.9142 9.08906 18.2404 9.87634 18.9264 10.0313C21.0245 10.5052 21.0245 13.4948 18.9264 13.9687C18.2404 14.1237 17.9142 14.9109 18.2898 15.5056C19.4383 17.3244 17.3244 19.4383 15.5056 18.2898C14.9109 17.9142 14.1237 18.2404 13.9687 18.9264C13.4948 21.0245 10.5052 21.0245 10.0313 18.9264C9.87634 18.2404 9.08905 17.9142 8.49436 18.2898C6.67564 19.4383 4.56174 17.3244 5.71022 15.5056C6.08575 14.9109 5.75965 14.1237 5.07359 13.9687C2.97547 13.4948 2.97547 10.5052 5.07359 10.0313C5.75965 9.87634 6.08575 9.08906 5.71022 8.49436C4.56174 6.67564 6.67564 4.56174 8.49436 5.71022C9.08906 6.08575 9.87634 5.75965 10.0313 5.07359ZM12.9933 5.29392C12.7541 4.23536 11.2459 4.23536 11.0067 5.29392C10.6996 6.65372 9.13914 7.30007 7.96043 6.55575C7.04283 5.97631 5.97631 7.04283 6.55575 7.96043C7.30007 9.13914 6.65372 10.6996 5.29392 11.0067C4.23536 11.2459 4.23536 12.7541 5.29392 12.9933C6.65372 13.3004 7.30007 14.8609 6.55575 16.0396C5.97631 16.9572 7.04283 18.0237 7.96043 17.4443C9.13914 16.6999 10.6996 17.3463 11.0067 18.7061C11.2459 19.7646 12.7541 19.7646 12.9933 18.7061C13.3004 17.3463 14.8609 16.6999 16.0396 17.4443C16.9572 18.0237 18.0237 16.9572 17.4443 16.0396C16.6999 14.8609 17.3463 13.3004 18.7061 12.9933C19.7646 12.7541 19.7646 11.2459 18.7061 11.0067C17.3463 10.6996 16.6999 9.13914 17.4443 7.96043C18.0237 7.04283 16.9572 5.97631 16.0396 6.55575C14.8609 7.30007 13.3004 6.65372 12.9933 5.29392Z" fill="#E4062C"/>
<path fill-rule="evenodd" clip-rule="evenodd" d="M12 14C13.1046 14 14 13.1046 14 12C14 10.8954 13.1046 10 12 10C10.8954 10 10 10.8954 10 12C10 13.1046 10.8954 14 12 14ZM12 15C13.6569 15 15 13.6569 15 12C15 10.3431 13.6569 9 12 9C10.3431 9 9 10.3431 9 12C9 13.6569 10.3431 15 12 15Z" fill="#E4062C"/>
</svg>
