<svg width="24" height="24" viewBox="0 0 24 24" fill="none" xmlns="http://www.w3.org/2000/svg">
<rect x="17" y="17" width="1" height="5" rx="0.5" fill="#E4062C"/>
<rect x="20" y="19" width="1" height="5" rx="0.5" transform="rotate(90 20 19)" fill="#E4062C"/>
<path fill-rule="evenodd" clip-rule="evenodd" d="M6 5V7C4.89543 7 4 7.89543 4 9L4 13C4 14.1046 4.89543 15 6 15V19C6 19.5523 6.44771 20 7 20H12.5C12.7761 20 13 19.7761 13 19.5C13 19.2239 12.7761 19 12.5 19H7L7 12H17V14C17 14.5523 17.4477 15 18 15C19.1046 15 20 14.1046 20 13V9C20 7.89543 19.1046 7 18 7V5C18 4.44772 17.5523 4 17 4L7 4C6.44772 4 6 4.44772 6 5ZM17 5L7 5V7L17 7V5ZM7 11C6.44772 11 6 11.4477 6 12V14C5.44772 14 5 13.5523 5 13V9C5 8.44772 5.44772 8 6 8L18 8C18.5523 8 19 8.44772 19 9V13C19 13.5523 18.5523 14 18 14V12C18 11.4477 17.5523 11 17 11H7Z" fill="#E4062C"/>
<path d="M15 15.5C15 15.2239 14.7761 15 14.5 15H9.5C9.22386 15 9 15.2239 9 15.5C9 15.7761 9.22386 16 9.5 16H14.5C14.7761 16 15 15.7761 15 15.5Z" fill="#E4062C"/>
<path d="M14.5 18C14.7761 18 15 17.7761 15 17.5C15 17.2239 14.7761 17 14.5 17H9.5C9.22386 17 9 17.2239 9 17.5C9 17.7761 9.22386 18 9.5 18H14.5Z" fill="#E4062C"/>
<path d="M9 13.5C9 13.2239 9.22386 13 9.5 13H14.5C14.7761 13 15 13.2239 15 13.5C15 13.7761 14.7761 14 14.5 14H9.5C9.22386 14 9 13.7761 9 13.5Z" fill="#E4062C"/>
</svg>
