<svg width="24" height="24" viewBox="0 0 24 24" fill="none" xmlns="http://www.w3.org/2000/svg">
<path fill-rule="evenodd" clip-rule="evenodd" d="M11 16C13.7614 16 16 13.7614 16 11C16 8.23858 13.7614 6 11 6C8.23858 6 6 8.23858 6 11C6 13.7614 8.23858 16 11 16ZM11 17C14.3137 17 17 14.3137 17 11C17 7.68629 14.3137 5 11 5C7.68629 5 5 7.68629 5 11C5 14.3137 7.68629 17 11 17Z" fill="#A6ABBA"/>
<path fill-rule="evenodd" clip-rule="evenodd" d="M14.6543 14.6543C14.8495 14.4591 15.1661 14.4591 15.3614 14.6543L18.8969 18.1899C19.0922 18.3851 19.0922 18.7017 18.8969 18.897C18.7016 19.0922 18.3851 19.0922 18.1898 18.897L14.6543 15.3614C14.459 15.1662 14.459 14.8496 14.6543 14.6543Z" fill="#A6ABBA"/>
</svg>
