<svg width="32" height="32" viewBox="0 0 32 32" fill="none" xmlns="http://www.w3.org/2000/svg">
<path fill-rule="evenodd" clip-rule="evenodd" d="M15.9997 26.6673C21.8907 26.6673 26.6663 21.8917 26.6663 16.0007C26.6663 10.1096 21.8907 5.33398 15.9997 5.33398C10.1086 5.33398 5.33301 10.1096 5.33301 16.0007C5.33301 21.8917 10.1086 26.6673 15.9997 26.6673Z" fill="black" fill-opacity="0.4"/>
<path fill-rule="evenodd" clip-rule="evenodd" d="M20.7142 20.7132C20.9745 20.4528 20.9745 20.0307 20.7142 19.7704L16.943 15.9992L20.7143 12.2279C20.9746 11.9676 20.9746 11.5455 20.7143 11.2851C20.4539 11.0248 20.0318 11.0248 19.7715 11.2851L16.0002 15.0564L12.2289 11.2851C11.9685 11.0248 11.5464 11.0248 11.2861 11.2851C11.0257 11.5455 11.0257 11.9676 11.2861 12.2279L15.0574 15.9992L11.2862 19.7704C11.0258 20.0308 11.0258 20.4529 11.2862 20.7132C11.5465 20.9736 11.9686 20.9736 12.229 20.7132L16.0002 16.942L19.7714 20.7132C20.0317 20.9735 20.4538 20.9735 20.7142 20.7132Z" fill="white"/>
</svg>
