<svg width="32" height="32" viewBox="0 0 32 32" fill="none" xmlns="http://www.w3.org/2000/svg">
<circle cx="16" cy="16" r="16" fill="#1C1B2E"/>
<path fill-rule="evenodd" clip-rule="evenodd" d="M11 11H13C13.5523 11 14 11.4477 14 12V14C14 14.5523 13.5523 15 13 15H11C10.4477 15 10 14.5523 10 14V12C10 11.4477 10.4477 11 11 11ZM9 12C9 10.8954 9.89543 10 11 10H13C14.1046 10 15 10.8954 15 12V14C15 15.1046 14.1046 16 13 16H11C9.89543 16 9 15.1046 9 14V12ZM11 19H13C13.5523 19 14 19.4477 14 20V22C14 22.5523 13.5523 23 13 23H11C10.4477 23 10 22.5523 10 22V20C10 19.4477 10.4477 19 11 19ZM9 20C9 18.8954 9.89543 18 11 18H13C14.1046 18 15 18.8954 15 20V22C15 23.1046 14.1046 24 13 24H11C9.89543 24 9 23.1046 9 22V20ZM21 11H19C18.4477 11 18 11.4477 18 12V14C18 14.5523 18.4477 15 19 15H21C21.5523 15 22 14.5523 22 14V12C22 11.4477 21.5523 11 21 11ZM19 10C17.8954 10 17 10.8954 17 12V14C17 15.1046 17.8954 16 19 16H21C22.1046 16 23 15.1046 23 14V12C23 10.8954 22.1046 10 21 10H19ZM19 19H21C21.5523 19 22 19.4477 22 20V22C22 22.5523 21.5523 23 21 23H19C18.4477 23 18 22.5523 18 22V20C18 19.4477 18.4477 19 19 19ZM17 20C17 18.8954 17.8954 18 19 18H21C22.1046 18 23 18.8954 23 20V22C23 23.1046 22.1046 24 21 24H19C17.8954 24 17 23.1046 17 22V20Z" fill="white"/>
</svg>
