<svg width="25" height="24" viewBox="0 0 25 24" fill="none" xmlns="http://www.w3.org/2000/svg">
<path d="M19.5 7.33333L19.5 6C19.5 5.44772 19.0523 5 18.5 5L6.5 5C5.94771 5 5.5 5.44772 5.5 6L5.5 18C5.5 18.5523 5.94772 19 6.5 19L18.5 19C19.0523 19 19.5 18.5523 19.5 18L19.5 16.6667" stroke="black" stroke-linecap="round"/>
<path d="M19.5 10L21.5 12L19.5 14" stroke="black" stroke-linecap="round" stroke-linejoin="round"/>
<path d="M16.5 12L21.5 12" stroke="black" stroke-linecap="round"/>
<circle cx="12.5" cy="9" r="1.5" stroke="black"/>
<path d="M11.5 12.5H13.5C14.8807 12.5 16 13.6193 16 15C16 15.2761 15.7761 15.5 15.5 15.5H9.5C9.22386 15.5 9 15.2761 9 15C9 13.6193 10.1193 12.5 11.5 12.5Z" stroke="black"/>
</svg>
