<svg width="25" height="24" viewBox="0 0 25 24" fill="none" xmlns="http://www.w3.org/2000/svg">
<path fill-rule="evenodd" clip-rule="evenodd" d="M10.5313 5.07359C11.0052 2.97547 13.9948 2.97547 14.4687 5.07359C14.6237 5.75965 15.4109 6.08575 16.0056 5.71022C17.8244 4.56174 19.9383 6.67564 18.7898 8.49436C18.4142 9.08906 18.7404 9.87634 19.4264 10.0313C21.5245 10.5052 21.5245 13.4948 19.4264 13.9687C18.7404 14.1237 18.4142 14.9109 18.7898 15.5056C19.9383 17.3244 17.8244 19.4383 16.0056 18.2898C15.4109 17.9142 14.6237 18.2404 14.4687 18.9264C13.9948 21.0245 11.0052 21.0245 10.5313 18.9264C10.3763 18.2404 9.58906 17.9142 8.99436 18.2898C7.17564 19.4383 5.06174 17.3244 6.21022 15.5056C6.58575 14.9109 6.25965 14.1237 5.57359 13.9687C3.47547 13.4948 3.47547 10.5052 5.57359 10.0313C6.25965 9.87634 6.58575 9.08906 6.21022 8.49436C5.06174 6.67564 7.17564 4.56174 8.99436 5.71022C9.58906 6.08575 10.3763 5.75965 10.5313 5.07359ZM13.4933 5.29392C13.2541 4.23536 11.7459 4.23536 11.5067 5.29392C11.1996 6.65372 9.63914 7.30007 8.46043 6.55575C7.54283 5.97631 6.47631 7.04283 7.05575 7.96043C7.80007 9.13914 7.15372 10.6996 5.79392 11.0067C4.73536 11.2459 4.73536 12.7541 5.79392 12.9933C7.15372 13.3004 7.80007 14.8609 7.05575 16.0396C6.47631 16.9572 7.54283 18.0237 8.46043 17.4443C9.63914 16.6999 11.1996 17.3463 11.5067 18.7061C11.7459 19.7646 13.2541 19.7646 13.4933 18.7061C13.8004 17.3463 15.3609 16.6999 16.5396 17.4443C17.4572 18.0237 18.5237 16.9572 17.9443 16.0396C17.1999 14.8609 17.8463 13.3004 19.2061 12.9933C20.2646 12.7541 20.2646 11.2459 19.2061 11.0067C17.8463 10.6996 17.1999 9.13914 17.9443 7.96043C18.5237 7.04283 17.4572 5.97631 16.5396 6.55575C15.3609 7.30007 13.8004 6.65372 13.4933 5.29392Z" fill="black"/>
<path fill-rule="evenodd" clip-rule="evenodd" d="M12.5 14C13.6046 14 14.5 13.1046 14.5 12C14.5 10.8954 13.6046 10 12.5 10C11.3954 10 10.5 10.8954 10.5 12C10.5 13.1046 11.3954 14 12.5 14ZM12.5 15C14.1569 15 15.5 13.6569 15.5 12C15.5 10.3431 14.1569 9 12.5 9C10.8431 9 9.5 10.3431 9.5 12C9.5 13.6569 10.8431 15 12.5 15Z" fill="black"/>
</svg>
