<svg width="25" height="24" viewBox="0 0 25 24" fill="none" xmlns="http://www.w3.org/2000/svg">
<path fill-rule="evenodd" clip-rule="evenodd" d="M7.5 12H17.5C18.0523 12 18.5 12.4477 18.5 13V19C18.5 19.5523 18.0523 20 17.5 20H7.5C6.94772 20 6.5 19.5523 6.5 19V13C6.5 12.4477 6.94772 12 7.5 12ZM5.5 13C5.5 11.8954 6.39543 11 7.5 11H17.5C18.6046 11 19.5 11.8954 19.5 13V19C19.5 20.1046 18.6046 21 17.5 21H7.5C6.39543 21 5.5 20.1046 5.5 19V13ZM12.5 14C12.2239 14 12 14.2239 12 14.5V17.5C12 17.7761 12.2239 18 12.5 18C12.7761 18 13 17.7761 13 17.5V14.5C13 14.2239 12.7761 14 12.5 14Z" fill="black"/>
<path d="M16.5 8V12H17.5V8C17.5 5.23858 15.2614 3 12.5 3C9.73858 3 7.5 5.23858 7.5 8V8.5C7.5 8.77614 7.72386 9 8 9V9C8.27614 9 8.5 8.77614 8.5 8.5L8.5 8C8.5 5.79086 10.2909 4 12.5 4C14.7091 4 16.5 5.79086 16.5 8Z" fill="black"/>
</svg>
