<svg width="32" height="32" viewBox="0 0 32 32" fill="none" xmlns="http://www.w3.org/2000/svg">
<circle cx="16" cy="16" r="16" fill="#616D91"/>
<path fill-rule="evenodd" clip-rule="evenodd" d="M20.5961 8.66207C20.4009 8.46681 20.0843 8.46681 19.889 8.66207L17.7677 10.7834L22.7175 15.7331L24.8388 13.6118C25.034 13.4166 25.034 13.1 24.8388 12.9047L20.5961 8.66207ZM22.0103 16.4402L17.0606 11.4905L11.8431 16.708C11.7493 16.8018 11.6966 16.929 11.6966 17.0616L11.6966 21.3042C11.6966 21.5803 11.9205 21.8042 12.1966 21.8042L16.4393 21.8042C16.5719 21.8042 16.6991 21.7515 16.7928 21.6578L22.0103 16.4402ZM17.4999 22.3649L22.7175 17.1474L23.4246 16.4402L25.5459 14.3189C26.1317 13.7331 26.1317 12.7834 25.5459 12.1976L21.3032 7.95496C20.7175 7.36918 19.7677 7.36918 19.1819 7.95497L17.0606 10.0763L16.3535 10.7834L11.136 16.0009C10.8547 16.2822 10.6966 16.6637 10.6966 17.0616V21.3042C10.6966 22.1326 11.3682 22.8042 12.1966 22.8042H16.4393C16.8371 22.8042 17.2186 22.6462 17.4999 22.3649ZM9 23.5008C8.72386 23.5008 8.5 23.7247 8.5 24.0008C8.5 24.2769 8.72386 24.5008 9 24.5008H24C24.2761 24.5008 24.5 24.2769 24.5 24.0008C24.5 23.7247 24.2761 23.5008 24 23.5008H9Z" fill="#FAFAFA"/>
</svg>
