<svg width="32" height="32" viewBox="0 0 32 32" fill="none" xmlns="http://www.w3.org/2000/svg">
<circle cx="16" cy="16" r="16" fill="#616D91"/>
<path d="M20 24H21C21.5523 24 22 23.5523 22 23V9C22 8.44772 21.5523 8 21 8H11C10.4477 8 10 8.44772 10 9V23C10 23.5523 10.4477 24 11 24H12" stroke="#FAFAFA" stroke-linecap="round"/>
<path d="M14 23L16 21L18 23" stroke="#FAFAFA" stroke-linecap="round" stroke-linejoin="round"/>
<path d="M16 26L16 21" stroke="#FAFAFA" stroke-linecap="round"/>
<circle cx="16" cy="13" r="1.5" stroke="#FAFAFA"/>
<path d="M12.5 19C12.5 17.6193 13.6193 16.5 15 16.5H17C18.3807 16.5 19.5 17.6193 19.5 19C19.5 19.2761 19.2761 19.5 19 19.5H13C12.7239 19.5 12.5 19.2761 12.5 19Z" stroke="#FAFAFA"/>
</svg>
