<svg width="32" height="32" viewBox="0 0 32 32" fill="none" xmlns="http://www.w3.org/2000/svg">
<circle cx="16" cy="16" r="16" fill="#E4062C"/>
<path fill-rule="evenodd" clip-rule="evenodd" d="M14 8H18V10H14V8ZM13 10V8C13 7.44772 13.4477 7 14 7H18C18.5523 7 19 7.44772 19 8V10H22H23.5C23.7761 10 24 10.2239 24 10.5C24 10.7761 23.7761 11 23.5 11H22V22C22 23.6569 20.6569 25 19 25H13C11.3431 25 10 23.6569 10 22V11H8.5C8.22386 11 8 10.7761 8 10.5C8 10.2239 8.22386 10 8.5 10H10H13ZM19 11H13H11V22C11 23.1046 11.8954 24 13 24H19C20.1046 24 21 23.1046 21 22V11H19ZM17 13.5C17 13.2239 17.2239 13 17.5 13C17.7761 13 18 13.2239 18 13.5V21.5C18 21.7761 17.7761 22 17.5 22C17.2239 22 17 21.7761 17 21.5V13.5ZM14.5 13C14.2239 13 14 13.2239 14 13.5V21.5C14 21.7761 14.2239 22 14.5 22C14.7761 22 15 21.7761 15 21.5V13.5C15 13.2239 14.7761 13 14.5 13Z" fill="#FAFAFA"/>
</svg>
