<svg width="32" height="32" viewBox="0 0 32 32" fill="none" xmlns="http://www.w3.org/2000/svg">
<circle cx="16" cy="16" r="16" fill="#616D91"/>
<path fill-rule="evenodd" clip-rule="evenodd" d="M11 16H21C21.5523 16 22 16.4477 22 17V23C22 23.5523 21.5523 24 21 24H11C10.4477 24 10 23.5523 10 23V17C10 16.4477 10.4477 16 11 16ZM9 17C9 15.8954 9.89543 15 11 15H21C22.1046 15 23 15.8954 23 17V23C23 24.1046 22.1046 25 21 25H11C9.89543 25 9 24.1046 9 23V17ZM16 18C15.7239 18 15.5 18.2239 15.5 18.5V21.5C15.5 21.7761 15.7239 22 16 22C16.2761 22 16.5 21.7761 16.5 21.5V18.5C16.5 18.2239 16.2761 18 16 18Z" fill="#FAFAFA"/>
<path d="M20 12V16H21V12C21 9.23858 18.7614 7 16 7C13.2386 7 11 9.23858 11 12V12.5C11 12.7761 11.2239 13 11.5 13C11.7761 13 12 12.7761 12 12.5L12 12C12 9.79086 13.7909 8 16 8C18.2091 8 20 9.79086 20 12Z" fill="#FAFAFA"/>
</svg>
